<svg t="1684924917107" class="icon" viewBox="0 0 1024 1024" version="1.1" xmlns="http://www.w3.org/2000/svg" p-id="925" width="200" height="200"><path d="M661.944889 73.144889H146.289778a36.679111 36.679111 0 0 0-36.579556 36.565333v804.579556a36.679111 36.679111 0 0 0 36.579556 36.565333h731.420444a36.679111 36.679111 0 0 0 36.579556-36.565333v-588.8L661.944889 73.144889z" fill="#5BC0E5" p-id="926"></path><path d="M661.944889 288.910222a36.679111 36.679111 0 0 0 36.565333 36.579556h215.779556L661.944889 73.144889v215.765333z" fill="#7EDCFE" p-id="927"></path><path d="M336.455111 570.510222L303.544889 550.4l-1.834667-1.834667c-20.110222-10.965333-34.744889-20.110222-34.744889-40.220444s10.979556-32.910222 31.089778-32.910222c18.289778 0 32.910222 9.130667 49.379556 27.420444l3.655111 3.655111 29.255111-49.365333-1.834667-1.834667C358.4 426.055111 329.144889 409.6 298.055111 409.6c-51.2 0-87.765333 43.889778-87.765333 104.234667 0 54.855111 27.420444 82.275556 51.2 96.910222l34.744889 21.944889c20.110222 12.8 32.910222 20.110222 32.910222 42.055111 0 23.765333-12.8 36.565333-34.744889 36.565333-20.110222 0-42.055111-14.620444-58.510222-36.565333l-3.655111-3.655111-32.924445 54.855111 1.834667 1.820444c23.765333 32.924444 58.510222 53.034667 91.420444 53.034667 54.869333 0 93.269333-43.889778 93.269334-107.889778 1.820444-51.2-14.634667-82.275556-49.379556-102.4z m181.034667 16.455111c-3.655111 20.124444-7.324444 38.4-10.979556 58.524445-1.820444 12.8-5.475556 25.6-7.310222 40.220444-3.655111-14.620444-5.489778-31.075556-7.310222-45.710222-3.655111-16.455111-5.489778-34.744889-9.144889-53.034667l-32.910222-171.875555h-58.524445l76.8 354.744889h62.179556l76.8-354.744889H550.4L517.489778 586.951111z m202.965333-16.455111v64h43.889778v64c-5.489778 7.324444-16.455111 10.979556-27.434667 10.979556-43.875556 0-69.475556-42.055111-69.475555-117.034667 0-71.310222 25.6-115.2 65.820444-115.2 21.944889 0 34.744889 14.634667 45.710222 27.434667l3.669334 3.655111 29.255111-51.2-1.834667-1.834667C789.944889 424.248889 762.510222 409.6 731.448889 409.6c-71.324444 0-120.689778 76.8-120.689778 184.689778 0 111.544889 47.544889 182.855111 120.689778 182.855111 32.910222 0 62.165333-16.455111 82.275555-43.889778V570.510222h-93.255111z" fill="#FFFFFF" p-id="928"></path></svg>