<svg t="1684925061256" class="icon" viewBox="0 0 1024 1024" version="1.1" xmlns="http://www.w3.org/2000/svg" p-id="2146" width="200" height="200"><path d="M953.670516 201.69697v775.043878A46.902303 46.902303 0 0 1 907.125062 1024H115.852335a46.902303 46.902303 0 0 1-46.545455-47.259152V47.259152A46.902303 46.902303 0 0 1 115.852335 0h651.636363z" fill="#B39DDB" p-id="2147"></path><path d="M953.670516 201.69697H798.519001l155.151515 170.666666V201.69697z" fill="#A18DC5" p-id="2148"></path><path d="M954.694516 201.69697H814.034153a46.545455 46.545455 0 0 1-46.545455-46.545455V0z" fill="#D1C4E9" p-id="2149"></path><path d="M391.091122 651.791515a112.236606 112.236606 0 0 0 73.914182-22.465939 74.674424 74.674424 0 0 0 27.042909-60.509091 61.703758 61.703758 0 0 0-17.935515-45.304243 77.684364 77.684364 0 0 0-47.150545-21.721212V501.139394a79.018667 79.018667 0 0 0 38.586182-23.645091 58.042182 58.042182 0 0 0 15.313454-39.889455 55.451152 55.451152 0 0 0-24.684606-48.019393 121.514667 121.514667 0 0 0-70.314667-17.330425h-99.141818V651.791515h104.370424z m-19.642181-235.209697q46.871273 0 46.871272 32.131879a33.481697 33.481697 0 0 1-11.729454 27.260121 48.60897 48.60897 0 0 1-32.085334 9.743515h-28.299636V416.581818h25.243152z m9.557333 114.082909a57.576727 57.576727 0 0 1 35.87103 9.759031 32.659394 32.659394 0 0 1 12.613818 27.430787 35.560727 35.560727 0 0 1-12.706909 29.059879 53.868606 53.868606 0 0 1-35.250424 10.472728h-35.328V530.618182h34.800485z m355.29697-158.487272H517.462032v48.748606h79.499636v230.865454h59.655757V420.926061h79.685819v-48.748606z" fill="#FFFFFF" p-id="2150"></path></svg>